<svg width="1009" height="328" viewBox="0 0 1009 328" fill="none" xmlns="http://www.w3.org/2000/svg">
<path d="M343.743 94.0616C337.754 84.3172 329.521 76.9271 319.045 71.8696C308.754 66.6268 297.156 64 284.251 64H167.412C152.689 64 139 66.5724 126.324 71.6953C113.844 76.6438 102.943 83.5978 93.6209 92.5792C84.3099 101.55 77.0354 112.177 71.819 124.439C66.6027 136.527 64 149.629 64 163.733C64 177.837 66.6027 191.015 71.819 203.288C77.0354 215.376 84.3099 226.003 93.6209 235.159C103.128 244.315 114.116 251.454 126.607 256.588C137.943 261.013 150.108 263.455 163.099 263.913C164.624 263.967 166.149 264 167.695 264H238.241V104.449L277.118 104.558H285.689C288.967 104.558 292.103 105.201 294.956 106.389C298.005 107.643 300.739 109.496 303.015 111.796C307.371 116.199 310.05 122.248 310.05 128.941C310.05 135.633 307.327 141.77 302.917 146.184C300.543 148.56 297.668 150.446 294.477 151.678C291.754 152.746 288.792 153.324 285.689 153.324H271.455V193.773H284.251C297.156 193.773 308.754 191.244 319.045 186.197C329.521 180.955 337.754 173.456 343.743 163.722C349.918 153.989 353 142.369 353 128.886C353 115.403 349.918 103.61 343.743 94.0616ZM191.631 220.848C184.64 223.431 176.57 224.717 167.412 224.717C158.841 224.717 150.924 223.257 143.65 220.325C136.571 217.393 130.418 213.272 125.202 207.953C120.171 202.645 116.174 196.236 113.19 188.726C110.392 181.216 108.998 172.889 108.998 163.733C108.998 154.577 110.392 146.511 113.19 139.001C116.174 131.491 120.171 125.082 125.202 119.774C130.418 114.466 136.571 110.433 143.65 107.686C150.924 104.754 158.841 103.294 167.412 103.294C176.57 103.294 184.64 104.678 191.631 107.457V220.848Z" fill="#0031FE"/>
<path d="M440.547 205.402C433.909 205.402 427.879 203.86 422.456 200.775C417.127 197.689 412.92 193.482 409.835 188.153C406.75 182.824 405.207 176.888 405.207 170.343C405.207 163.705 406.75 157.769 409.835 152.533C412.92 147.204 417.127 142.997 422.456 139.912C427.879 136.827 433.909 135.284 440.547 135.284C445.782 135.284 450.644 136.312 455.131 138.369C459.712 140.333 463.592 143.184 466.771 146.924L456.674 157.161C454.711 154.824 452.327 153.094 449.522 151.972C446.811 150.757 443.819 150.149 440.547 150.149C436.714 150.149 433.301 151.037 430.309 152.814C427.411 154.496 425.121 156.834 423.438 159.825C421.849 162.817 421.054 166.323 421.054 170.343C421.054 174.27 421.849 177.776 423.438 180.861C425.121 183.853 427.411 186.237 430.309 188.013C433.301 189.696 436.714 190.537 440.547 190.537C443.819 190.537 446.811 189.976 449.522 188.854C452.327 187.639 454.711 185.863 456.674 183.525L466.771 193.763C463.592 197.502 459.712 200.401 455.131 202.457C450.644 204.421 445.782 205.402 440.547 205.402ZM507.375 205.402C500.831 205.402 494.894 203.86 489.565 200.775C484.236 197.596 479.982 193.342 476.803 188.013C473.718 182.684 472.176 176.747 472.176 170.203C472.176 163.659 473.718 157.769 476.803 152.533C479.982 147.298 484.236 143.137 489.565 140.052C494.894 136.873 500.831 135.284 507.375 135.284C514.013 135.284 519.996 136.827 525.325 139.912C530.654 142.997 534.861 147.204 537.947 152.533C541.125 157.769 542.715 163.659 542.715 170.203C542.715 176.747 541.125 182.684 537.947 188.013C534.861 193.342 530.654 197.596 525.325 200.775C519.996 203.86 514.013 205.402 507.375 205.402ZM507.375 190.537C511.208 190.537 514.574 189.696 517.472 188.013C520.464 186.237 522.754 183.806 524.344 180.721C526.026 177.636 526.868 174.13 526.868 170.203C526.868 166.276 526.026 162.817 524.344 159.825C522.661 156.834 520.37 154.496 517.472 152.814C514.574 151.037 511.208 150.149 507.375 150.149C503.635 150.149 500.27 151.037 497.278 152.814C494.38 154.496 492.089 156.834 490.406 159.825C488.817 162.817 488.022 166.276 488.022 170.203C488.022 174.13 488.817 177.636 490.406 180.721C492.089 183.806 494.38 186.237 497.278 188.013C500.27 189.696 503.635 190.537 507.375 190.537ZM555.543 204V136.686H570.969V204H555.543ZM600.278 204V163.892C600.278 159.405 598.876 155.946 596.071 153.515C593.267 150.991 589.807 149.728 585.694 149.728C582.889 149.728 580.365 150.289 578.121 151.411C575.971 152.533 574.241 154.169 572.932 156.32C571.623 158.376 570.969 160.901 570.969 163.892L564.939 160.527C564.939 155.385 566.061 150.944 568.304 147.204C570.548 143.465 573.587 140.566 577.42 138.51C581.253 136.359 585.554 135.284 590.322 135.284C595.09 135.284 599.39 136.312 603.223 138.369C607.057 140.426 610.095 143.324 612.339 147.064C614.583 150.804 615.704 155.291 615.704 160.527V204H600.278ZM645.014 204V163.892C645.014 159.405 643.612 155.946 640.807 153.515C638.002 150.991 634.543 149.728 630.429 149.728C627.718 149.728 625.241 150.289 622.997 151.411C620.753 152.533 618.977 154.169 617.668 156.32C616.359 158.376 615.704 160.901 615.704 163.892L607.01 160.527C607.477 155.385 608.973 150.944 611.497 147.204C614.022 143.465 617.247 140.566 621.174 138.51C625.194 136.359 629.588 135.284 634.356 135.284C639.217 135.284 643.612 136.312 647.538 138.369C651.465 140.426 654.597 143.324 656.934 147.064C659.271 150.804 660.44 155.291 660.44 160.527V204H645.014ZM712.373 205.402C707.231 205.402 702.65 204.327 698.63 202.177C694.61 199.933 691.431 196.895 689.094 193.062C686.85 189.228 685.729 184.881 685.729 180.02V160.667C685.729 155.805 686.897 151.458 689.234 147.625C691.572 143.792 694.75 140.8 698.771 138.65C702.791 136.406 707.325 135.284 712.373 135.284C718.45 135.284 723.92 136.873 728.781 140.052C733.736 143.137 737.616 147.344 740.421 152.673C743.319 157.909 744.768 163.846 744.768 170.483C744.768 177.028 743.319 182.965 740.421 188.294C737.616 193.529 733.736 197.689 728.781 200.775C723.92 203.86 718.45 205.402 712.373 205.402ZM676.333 232.047V136.686H691.759V154.777L689.094 171.185L691.759 187.452V232.047H676.333ZM709.849 190.818C713.589 190.818 716.861 189.976 719.666 188.294C722.564 186.517 724.808 184.086 726.397 181.001C728.08 177.916 728.921 174.363 728.921 170.343C728.921 166.323 728.08 162.77 726.397 159.685C724.808 156.6 722.564 154.216 719.666 152.533C716.861 150.757 713.589 149.869 709.849 149.869C706.11 149.869 702.791 150.757 699.892 152.533C696.994 154.216 694.75 156.6 693.161 159.685C691.572 162.77 690.777 166.323 690.777 170.343C690.777 174.363 691.572 177.916 693.161 181.001C694.75 184.086 696.994 186.517 699.892 188.294C702.791 189.976 706.11 190.818 709.849 190.818ZM757.821 204V136.686H773.247V204H757.821ZM765.534 124.346C762.916 124.346 760.719 123.457 758.943 121.681C757.26 119.905 756.419 117.708 756.419 115.09C756.419 112.472 757.26 110.275 758.943 108.499C760.719 106.723 762.916 105.834 765.534 105.834C768.245 105.834 770.442 106.723 772.125 108.499C773.808 110.275 774.649 112.472 774.649 115.09C774.649 117.708 773.808 119.905 772.125 121.681C770.442 123.457 768.245 124.346 765.534 124.346ZM790.549 204V103.03H805.975V204H790.549ZM853.995 205.402C847.451 205.402 841.514 203.86 836.185 200.775C830.856 197.596 826.602 193.342 823.423 188.013C820.338 182.684 818.796 176.747 818.796 170.203C818.796 163.659 820.338 157.769 823.423 152.533C826.602 147.298 830.856 143.137 836.185 140.052C841.514 136.873 847.451 135.284 853.995 135.284C860.633 135.284 866.616 136.827 871.945 139.912C877.274 142.997 881.481 147.204 884.566 152.533C887.745 157.769 889.335 163.659 889.335 170.203C889.335 176.747 887.745 182.684 884.566 188.013C881.481 193.342 877.274 197.596 871.945 200.775C866.616 203.86 860.633 205.402 853.995 205.402ZM853.995 190.537C857.828 190.537 861.194 189.696 864.092 188.013C867.084 186.237 869.374 183.806 870.964 180.721C872.646 177.636 873.488 174.13 873.488 170.203C873.488 166.276 872.646 162.817 870.964 159.825C869.281 156.834 866.99 154.496 864.092 152.814C861.194 151.037 857.828 150.149 853.995 150.149C850.255 150.149 846.89 151.037 843.898 152.814C841 154.496 838.709 156.834 837.026 159.825C835.437 162.817 834.642 166.276 834.642 170.203C834.642 174.13 835.437 177.636 837.026 180.721C838.709 183.806 841 186.237 843.898 188.013C846.89 189.696 850.255 190.537 853.995 190.537ZM910.483 204V108.639H925.909V204H910.483ZM894.356 150.71V136.686H942.036V150.71H894.356Z" fill="#00040A"/>
</svg>
